<?xml version="1.0" standalone="no"?>
<!DOCTYPE svg PUBLIC "-//W3C//DTD SVG 20010904//EN"
 "http://www.w3.org/TR/2001/REC-SVG-20010904/DTD/svg10.dtd">
<svg version="1.0" xmlns="http://www.w3.org/2000/svg"
 width="281.000000pt" height="281.000000pt" viewBox="0 0 281.000000 281.000000"
 preserveAspectRatio="xMidYMid meet">
<metadata>
Created by potrace 1.14, written by Peter Selinger 2001-2017
</metadata>
<g transform="translate(0.000000,281.000000) scale(0.100000,-0.100000)"
fill="#000000" stroke="none">
<path d="M345 2732 c-11 -2 -45 -16 -75 -30 -30 -14 -58 -25 -62 -24 -5 1 -8
-3 -8 -10 0 -6 -3 -9 -6 -6 -8 8 -74 -63 -74 -79 0 -7 -4 -13 -10 -13 -5 0 -9
-3 -8 -7 1 -5 -6 -24 -17 -43 -27 -51 -34 -194 -10 -220 9 -10 14 -23 11 -28
-3 -5 4 -19 15 -30 11 -12 17 -22 14 -22 -3 0 21 -27 54 -60 33 -33 66 -60 74
-60 7 0 18 -5 23 -10 6 -6 21 -13 35 -16 30 -8 171 -11 184 -5 6 3 18 7 28 8
10 2 35 14 55 28 l37 25 124 -125 c69 -69 128 -125 132 -125 12 0 3 -34 -9
-38 -7 -2 -10 -7 -8 -11 3 -4 -6 -20 -20 -36 -26 -30 -73 -123 -80 -158 -2
-11 -7 -23 -11 -26 -8 -6 -12 -21 -17 -80 -2 -18 -8 -36 -14 -40 -5 -3 -8 -14
-6 -25 6 -42 -4 -46 -106 -46 -92 0 -111 5 -116 30 -5 25 -25 52 -68 93 -42
40 -56 48 -83 45 -17 -1 -35 1 -39 5 -4 3 -12 3 -18 0 -6 -4 -22 -8 -36 -8
-33 -2 -90 -25 -90 -37 0 -5 -4 -6 -10 -3 -5 3 -10 -1 -10 -9 0 -9 -4 -16 -9
-16 -8 0 -24 -32 -26 -52 0 -4 -6 -13 -13 -19 -6 -7 -12 -35 -12 -61 0 -58 27
-106 94 -165 46 -41 47 -41 126 -40 44 0 80 4 80 9 0 4 6 8 13 8 21 0 100 95
102 122 1 26 101 44 133 24 7 -4 12 -3 12 1 0 10 37 9 62 -2 9 -3 14 -13 11
-20 -2 -8 -1 -20 3 -27 5 -7 10 -20 12 -28 8 -40 13 -67 16 -93 4 -30 46 -120
59 -125 4 -2 7 -10 7 -18 0 -9 16 -36 35 -61 19 -25 35 -53 35 -62 0 -9 -57
-73 -127 -143 l-127 -127 -25 18 c-26 18 -53 30 -81 38 -8 2 -52 5 -98 7 -107
3 -158 -18 -232 -95 -70 -73 -80 -85 -80 -101 0 -8 -7 -24 -16 -36 -10 -14
-14 -39 -13 -67 2 -24 0 -47 -3 -50 -6 -7 32 -126 43 -135 4 -3 10 -15 13 -28
4 -13 23 -37 41 -54 34 -30 125 -82 125 -70 0 3 6 -2 13 -12 12 -16 26 -18
117 -14 69 2 105 8 108 16 2 7 12 12 22 12 10 0 25 6 32 13 7 7 24 21 38 30
14 10 25 21 25 26 0 5 12 20 27 33 15 13 28 30 30 38 2 8 7 18 11 21 5 3 10
15 12 25 2 10 4 19 5 19 5 0 6 181 1 190 -3 6 -7 19 -8 30 -2 11 -8 22 -13 23
-6 2 -10 12 -10 23 0 10 -4 19 -9 19 -5 0 -8 6 -7 13 2 16 36 64 36 52 0 -6 8
2 18 18 10 15 22 24 25 20 4 -3 7 -2 7 4 0 14 68 82 75 75 3 -3 5 0 5 6 0 6
11 22 25 36 14 14 25 22 25 18 0 -4 8 5 18 20 14 21 21 24 35 17 9 -6 17 -7
17 -4 0 3 14 -8 31 -24 17 -17 65 -47 108 -68 70 -34 90 -41 131 -45 8 0 18
-6 22 -11 3 -5 27 -10 53 -11 39 -1 49 -5 55 -22 5 -11 4 -27 0 -34 -5 -8 -4
-22 1 -32 6 -10 7 -24 3 -30 -4 -6 -6 -34 -5 -61 1 -28 -1 -48 -5 -44 -4 3
-20 -3 -35 -14 -16 -11 -29 -17 -29 -13 0 18 -57 -54 -73 -91 -19 -46 -18
-134 2 -159 11 -13 11 -16 0 -16 -8 0 13 -25 45 -56 33 -30 65 -53 73 -50 7 3
13 1 13 -4 0 -13 107 -13 115 0 3 5 12 7 20 3 10 -3 37 17 74 55 l59 61 0 62
c-1 35 -7 74 -14 88 -8 14 -14 33 -14 41 0 19 -38 55 -76 72 -47 21 -61 43
-55 83 1 6 2 45 2 88 l0 77 44 -4 c29 -2 48 1 55 9 6 8 20 12 30 10 11 -2 22
1 25 6 4 5 10 7 15 4 5 -3 25 4 44 16 20 11 36 17 36 12 0 -4 4 -2 9 6 5 8 17
16 26 17 19 3 85 51 103 76 8 11 19 15 32 10 21 -8 257 -237 271 -264 5 -10 6
-18 2 -18 -8 0 -33 -44 -49 -85 -11 -29 -11 -195 -1 -195 5 0 7 -7 3 -15 -3
-8 0 -20 7 -27 7 -8 13 -20 15 -27 6 -30 121 -130 161 -141 22 -6 43 -15 46
-21 4 -6 40 -9 85 -8 65 1 89 7 145 34 65 32 149 101 140 115 -3 4 2 13 9 19
11 9 14 48 15 167 2 131 -1 155 -14 160 -8 3 -15 13 -15 20 0 8 -22 38 -50 66
-27 28 -50 48 -50 44 0 -3 -15 1 -32 11 -45 23 -61 26 -148 25 -103 -2 -137
-7 -155 -26 -43 -43 -46 -42 -170 84 -65 66 -122 120 -127 120 -8 0 -12 23 -8
49 1 8 13 27 28 42 14 15 27 34 28 42 1 8 12 25 23 36 12 12 19 26 16 31 -4 6
-1 10 6 10 7 0 9 3 6 7 -4 3 -2 12 4 20 6 7 8 13 5 13 -4 0 -1 10 6 23 14 26
18 40 22 89 2 21 9 44 16 52 6 9 9 19 7 24 -11 16 8 30 43 32 19 1 65 2 103 1
53 -1 67 -4 67 -16 0 -38 100 -152 122 -139 4 3 8 0 8 -5 0 -7 28 -10 76 -9
l76 2 54 49 54 49 0 103 0 102 -59 56 c-33 30 -62 53 -65 50 -3 -4 -30 -5 -60
-4 -29 1 -66 -3 -82 -9 -39 -15 -111 -94 -119 -130 l-7 -30 -98 0 c-109 0
-119 5 -115 60 1 19 -3 38 -8 42 -6 3 -12 15 -13 25 -4 25 -9 43 -22 76 -7 16
-12 31 -12 34 0 17 -65 130 -81 141 -11 7 -17 18 -14 23 4 5 -1 16 -10 25 -14
14 -13 19 12 48 16 18 30 31 32 30 2 -2 16 12 31 31 15 19 30 32 34 28 3 -3 6
-2 6 4 0 6 16 27 35 46 19 19 35 32 35 29 0 -4 8 5 18 21 10 15 22 24 25 20 4
-3 7 1 7 10 0 19 20 14 60 -13 14 -10 41 -21 60 -25 52 -12 173 -13 188 -2 7
5 15 7 18 4 4 -3 13 1 21 9 8 8 19 12 24 9 5 -4 9 -1 9 6 0 7 3 9 6 6 4 -4 38
26 75 65 l69 72 0 152 c0 122 -3 154 -15 164 -8 7 -15 18 -15 26 0 14 -80 93
-85 84 -2 -3 -11 2 -21 11 -40 33 -164 71 -164 50 0 -3 -24 -6 -53 -6 -59 0
-114 -23 -167 -68 -44 -38 -81 -87 -74 -98 3 -5 0 -9 -6 -9 -20 0 -33 -55 -34
-152 -1 -53 1 -95 5 -92 4 2 9 -10 13 -27 3 -17 15 -42 26 -57 l21 -26 -129
-129 c-138 -138 -166 -153 -201 -109 -17 22 -111 77 -111 65 0 -4 -7 2 -15 13
-8 10 -15 15 -15 10 0 -5 -6 -4 -13 2 -7 6 -28 14 -47 17 -19 3 -47 12 -62 19
-14 8 -44 13 -67 12 -24 -1 -42 3 -45 10 -3 7 -6 53 -7 102 -2 93 10 129 41
127 33 -2 100 50 100 79 0 8 7 21 15 30 20 19 15 116 -8 167 -32 72 -128 131
-187 116 -11 -3 -20 -1 -20 3 0 19 -83 -22 -125 -61 -25 -23 -43 -44 -41 -47
3 -2 -4 -20 -14 -40 -11 -19 -16 -40 -12 -46 3 -6 7 -20 7 -31 3 -61 47 -145
76 -145 9 0 38 -22 71 -53 10 -10 16 -23 12 -29 -9 -15 -11 -69 -3 -74 4 -2 3
-20 -1 -39 -4 -19 -4 -33 0 -30 4 2 5 -6 3 -18 -4 -18 -11 -23 -36 -22 -18 1
-35 -3 -39 -9 -4 -6 -24 -11 -45 -12 -51 -3 -71 -8 -84 -21 -6 -6 -17 -9 -23
-7 -6 2 -22 -5 -34 -16 -12 -11 -22 -18 -22 -14 0 3 -7 1 -15 -6 -8 -7 -15 -9
-15 -4 0 4 -7 -1 -15 -12 -8 -10 -15 -15 -15 -10 0 4 -12 -5 -28 -21 -43 -46
-56 -47 -96 -2 -20 21 -39 39 -43 39 -5 1 -21 19 -38 40 -16 21 -34 40 -40 40
-5 1 -32 26 -58 57 -47 53 -48 55 -32 79 8 13 12 24 8 24 -5 0 -2 4 4 8 18 11
29 84 27 167 -2 80 -6 104 -20 113 -5 4 -10 15 -12 25 -5 27 -111 132 -152
149 -65 27 -96 35 -115 28 -11 -4 -29 -4 -40 0 -11 3 -29 4 -40 2z m1125 -972
c3 -4 31 -10 64 -13 32 -3 61 -9 65 -15 3 -5 22 -12 42 -16 20 -3 62 -24 93
-46 31 -22 56 -37 56 -34 0 3 23 -18 51 -46 59 -59 71 -99 34 -116 -22 -11
-29 -6 -83 45 -32 31 -63 57 -68 58 -6 1 -34 18 -62 37 -29 19 -70 38 -90 41
-20 3 -44 10 -52 14 -21 11 -210 13 -210 2 0 -5 -17 -11 -37 -14 -21 -3 -45
-7 -53 -9 -24 -7 -90 -49 -90 -58 0 -4 -12 -11 -26 -14 -15 -4 -49 -29 -77
-56 -60 -58 -100 -64 -103 -15 -1 23 10 40 53 82 30 29 59 53 63 53 5 0 20 10
32 23 13 12 30 23 38 25 8 2 17 8 18 13 2 5 12 9 22 9 10 0 31 5 47 12 15 6
31 11 36 10 4 -1 7 2 7 7 0 5 20 9 44 9 25 0 52 4 61 10 21 11 118 13 125 2z
m-72 -169 c12 5 22 5 22 1 0 -4 31 -7 68 -7 51 0 75 -5 97 -21 17 -11 43 -26
59 -34 16 -8 52 -36 80 -63 38 -35 51 -55 52 -77 1 -25 -4 -32 -24 -37 -21 -5
-32 1 -59 30 -18 20 -33 33 -33 29 0 -4 -4 -2 -8 3 -19 27 -76 65 -98 65 -13
0 -24 4 -24 9 0 9 -137 30 -145 22 -3 -2 -24 -6 -48 -8 -23 -3 -43 -9 -45 -14
-2 -5 -14 -9 -27 -9 -25 0 -166 -109 -158 -122 6 -10 -38 -10 -54 0 -42 27 50
141 147 183 14 6 32 17 41 25 8 7 30 15 47 17 18 2 35 6 38 10 3 3 16 2 27 -2
12 -5 32 -5 45 0z m126 -186 c54 -26 126 -97 132 -131 5 -27 3 -33 -16 -39
-18 -6 -32 2 -69 39 -26 25 -54 46 -64 46 -9 0 -17 4 -17 8 0 10 -30 9 -47 -1
-6 -4 -14 -4 -16 0 -4 6 -72 9 -72 3 0 -1 -11 -3 -25 -5 -14 -2 -49 -27 -79
-55 -41 -40 -55 -49 -62 -39 -5 8 -9 10 -10 4 -1 -13 -17 26 -18 44 -1 18 95
111 115 111 8 0 13 4 9 9 -14 23 192 28 239 6z m-37 -181 l44 -36 -4 -60 c-3
-49 -9 -64 -31 -84 -14 -14 -26 -21 -26 -17 0 4 -5 1 -10 -8 -10 -17 -80 -25
-80 -9 0 6 -6 10 -14 10 -8 0 -28 14 -45 31 -27 26 -31 38 -31 84 0 49 3 55
40 89 55 49 97 49 157 0z"/>
</g>
</svg>
