<?xml version="1.0" standalone="no"?>
<!DOCTYPE svg PUBLIC "-//W3C//DTD SVG 20010904//EN"
 "http://www.w3.org/TR/2001/REC-SVG-20010904/DTD/svg10.dtd">
<svg version="1.0" xmlns="http://www.w3.org/2000/svg"
 width="274.000000pt" height="281.000000pt" viewBox="0 0 274.000000 281.000000"
 preserveAspectRatio="xMidYMid meet">
<metadata>
Created by potrace 1.16, written by Peter Selinger 2001-2019
</metadata>
<g transform="translate(0.000000,281.000000) scale(0.100000,-0.100000)"
fill="#000000" stroke="none">
<path d="M285 2742 c-68 -25 -135 -66 -170 -104 -41 -44 -82 -108 -69 -108 4
0 0 -8 -8 -17 -19 -22 -26 -197 -8 -208 6 -3 8 -11 5 -16 -4 -5 -2 -9 4 -9 6
0 8 -6 5 -14 -7 -19 131 -163 181 -188 80 -40 246 -36 310 8 20 13 39 23 43
23 4 -1 60 -57 125 -124 l117 -121 -15 -30 c-8 -17 -24 -39 -35 -49 -11 -10
-20 -26 -20 -35 0 -10 -6 -23 -13 -29 -8 -6 -20 -30 -27 -53 -8 -24 -17 -48
-22 -54 -5 -7 -11 -35 -15 -63 -3 -28 -10 -54 -14 -57 -5 -3 -9 -16 -9 -30 0
-24 -1 -24 -93 -24 l-94 0 -18 39 c-17 39 -58 83 -105 114 -26 18 -170 25
-170 8 0 -5 -12 -12 -27 -16 -32 -7 -85 -54 -77 -67 3 -4 0 -8 -5 -8 -30 0
-58 -169 -31 -185 6 -4 8 -11 5 -16 -4 -5 -1 -9 6 -9 7 0 10 -3 6 -6 -3 -3 24
-32 60 -65 l65 -59 77 0 77 0 56 50 c32 29 62 66 70 86 l12 35 96 -3 c93 -3
95 -4 92 -26 -2 -13 1 -29 6 -35 5 -7 13 -40 17 -74 4 -37 15 -73 26 -87 10
-13 19 -31 19 -39 0 -8 7 -20 15 -27 8 -7 15 -20 15 -30 0 -9 9 -25 20 -35 11
-10 27 -32 35 -49 l16 -30 -124 -124 -124 -124 -37 26 c-63 42 -239 49 -316
11 -47 -23 -182 -165 -177 -185 2 -9 -2 -21 -10 -28 -16 -15 -19 -177 -3 -187
6 -4 8 -11 4 -16 -9 -15 36 -100 75 -142 20 -20 68 -53 108 -73 70 -36 74 -36
165 -32 54 2 103 10 118 18 58 33 106 66 113 78 5 8 21 26 36 40 49 49 56 76
56 206 0 107 -3 125 -23 159 -12 21 -22 41 -22 46 0 18 242 246 258 243 8 -2
34 -18 56 -36 73 -59 247 -126 326 -126 19 0 20 -6 20 -94 l0 -94 -44 -21
c-50 -25 -64 -40 -94 -99 -23 -45 -32 -172 -12 -172 6 0 10 -10 10 -23 0 -23
64 -85 118 -113 27 -14 109 -17 149 -6 30 9 123 83 123 98 0 7 7 14 15 18 23
9 20 118 -6 186 -25 67 -39 84 -95 111 l-44 21 0 97 0 97 40 -4 c22 -2 46 0
53 6 6 5 28 12 48 16 52 9 175 72 219 112 20 19 41 34 46 34 5 0 67 -58 138
-129 l129 -129 -22 -27 c-11 -15 -21 -35 -21 -44 0 -10 -5 -22 -11 -28 -16
-16 -6 -221 12 -254 23 -41 156 -159 179 -159 12 0 32 -7 45 -16 20 -13 43
-15 113 -11 98 5 174 37 237 98 67 65 75 92 75 254 0 83 -4 145 -9 145 -5 0
-13 10 -17 22 -8 26 -102 128 -118 128 -6 0 -24 7 -41 16 -68 37 -249 30 -311
-12 l-37 -26 -124 124 c-67 67 -123 130 -123 138 0 9 14 29 30 45 17 16 30 36
30 45 0 9 8 24 18 34 11 9 25 35 32 59 8 23 18 47 22 54 5 6 12 37 15 68 3 30
10 58 14 61 5 3 9 16 9 30 0 24 1 24 94 24 92 0 94 0 100 -26 8 -31 80 -110
117 -130 17 -8 57 -14 97 -14 l70 0 65 58 65 57 1 101 1 102 -66 61 -66 61
-64 0 c-99 0 -177 -51 -213 -138 l-13 -32 -94 0 -94 0 0 39 c0 22 -4 42 -9 45
-5 4 -12 24 -16 46 -4 22 -11 42 -16 46 -5 3 -9 12 -9 20 0 21 -58 140 -75
154 -8 7 -22 26 -30 43 l-15 31 102 105 c147 152 139 146 183 117 20 -14 57
-28 81 -32 67 -10 184 1 224 21 37 19 161 131 153 139 -3 2 4 11 16 18 20 12
21 21 21 156 0 129 -2 147 -21 173 -11 16 -17 29 -13 29 24 0 -92 96 -152 127
-70 35 -74 35 -160 31 -65 -4 -101 -12 -134 -28 -45 -23 -150 -122 -150 -142
0 -6 -8 -20 -17 -31 -14 -15 -19 -42 -22 -129 -2 -72 1 -114 8 -121 6 -6 11
-18 11 -28 0 -9 10 -29 21 -44 l22 -27 -124 -124 c-68 -68 -131 -124 -140
-124 -9 0 -39 18 -65 40 -27 22 -52 40 -56 40 -5 0 -30 11 -57 24 -27 13 -67
27 -88 31 -21 4 -43 11 -48 15 -6 5 -31 10 -55 12 l-45 3 0 99 0 100 35 9
c105 27 163 182 109 293 -22 47 -85 109 -125 124 -33 13 -116 13 -149 0 -36
-14 -125 -99 -125 -121 0 -10 -4 -21 -10 -24 -12 -8 -13 -122 -1 -129 4 -3 11
-20 15 -38 6 -32 41 -78 58 -78 5 0 25 -12 44 -26 l34 -26 0 -93 0 -93 -32 -5
c-18 -4 -58 -10 -89 -15 -31 -6 -64 -15 -75 -20 -10 -6 -41 -20 -67 -33 -27
-12 -69 -39 -94 -60 -24 -22 -47 -39 -51 -39 -4 0 -63 56 -132 125 l-124 124
24 43 c19 35 24 62 28 144 4 88 1 107 -18 155 -27 63 -116 161 -175 191 -42
22 -190 34 -230 20z m1160 -1002 c3 -5 27 -10 53 -10 26 0 56 -6 67 -14 11 -7
23 -14 27 -15 55 -10 69 -15 79 -27 6 -8 17 -14 23 -14 21 0 156 -131 156
-151 0 -32 -30 -22 -85 29 -70 63 -168 122 -235 141 -67 18 -226 19 -295 2
-63 -17 -172 -82 -240 -143 -55 -51 -85 -61 -85 -29 0 21 134 151 155 151 7 0
18 6 24 14 10 12 66 30 74 23 1 -1 13 6 27 16 15 10 43 17 72 17 26 0 50 5 53
10 3 6 33 10 65 10 32 0 62 -4 65 -10z m105 -191 c14 -9 30 -17 35 -19 42 -10
145 -107 145 -137 0 -38 -27 -27 -98 37 -37 33 -78 63 -92 67 -14 3 -31 11
-39 17 -19 15 -223 15 -242 0 -8 -6 -25 -14 -39 -17 -14 -4 -55 -34 -92 -67
-72 -65 -98 -75 -98 -36 0 26 72 99 118 118 15 7 34 18 43 26 31 25 74 31 204
29 101 -2 137 -6 155 -18z m-40 -164 c58 -47 100 -94 100 -114 0 -33 -20 -25
-73 27 l-48 47 -99 3 -99 4 -54 -51 c-58 -55 -87 -65 -87 -29 0 27 97 124 131
131 13 3 65 4 114 3 72 -1 95 -6 115 -21z m-61 -164 l37 -29 -6 -63 c-5 -53
-10 -65 -35 -85 -35 -28 -69 -30 -112 -9 -43 22 -50 32 -56 97 -5 57 -5 58 31
88 48 40 92 40 141 1z"/>
</g>
</svg>
